<svg width="130" height="130" viewBox="0 0 130 130" fill="none" xmlns="http://www.w3.org/2000/svg">
<path fill-rule="evenodd" clip-rule="evenodd" d="M129.75 66.7899C129.485 72.5032 124.791 77.0561 119.017 77.0318C117.922 77.0284 116.834 76.858 115.79 76.5264C115.766 76.5163 115.748 76.5224 115.722 76.5123C108.513 74.1798 100.984 72.9908 93.4082 72.9884C91.2369 72.9884 89.1 73.13 86.9772 73.322C86.6887 73.3806 86.4161 73.5003 86.1777 73.673C85.9393 73.8457 85.7406 74.0674 85.595 74.3233C85.4495 74.5792 85.3604 74.8633 85.3338 75.1564C85.3071 75.4496 85.3436 75.7451 85.4407 76.023C85.4649 76.0897 85.4043 76.0857 85.3719 76.1059C89.3543 88.0092 92.1676 100.272 93.7721 112.721C93.7761 112.731 93.7964 112.721 93.8004 112.735C93.859 113.038 94.1562 113.295 94.4372 113.23C104.365 107.171 112.194 98.2104 116.866 87.5588L116.975 87.6033C117.337 86.7442 117.985 86.0365 118.809 85.6003C119.633 85.164 120.582 85.0258 121.496 85.2092C122.411 85.3926 123.233 85.8863 123.825 86.6066C124.417 87.327 124.742 88.2297 124.745 89.162C124.745 89.7605 124.603 90.3285 124.373 90.838C118.908 103.306 109.61 113.697 97.9954 120.577C97.1521 121.016 96.2401 121.308 95.2985 121.44C94.1914 121.582 93.0673 121.503 91.9906 121.209C90.9139 120.916 89.9057 120.413 89.0235 119.729C88.1414 119.045 87.4027 118.194 86.8497 117.225C86.2966 116.256 85.9401 115.187 85.8005 114.079C85.7823 113.948 85.6873 113.788 85.6408 113.643C84.1356 102.018 81.5391 90.5599 77.8856 79.4215C77.8755 79.2699 77.8714 79.1203 77.8027 78.9221C77.514 78.0796 77.3327 77.204 77.2629 76.3162C76.8505 70.9587 80.5825 66.2885 85.746 65.3222C88.2916 65.0563 90.8488 64.916 93.4082 64.9017C102.067 64.9017 110.405 66.2744 118.227 68.7995C118.485 68.8864 118.756 68.9451 119.047 68.9451C120.353 68.9491 121.388 67.9928 121.619 66.7535C121.643 66.1369 121.712 65.5304 121.712 64.9017C121.712 55.3795 119.314 46.4294 115.16 38.5589L115.212 38.5286C114.879 37.9395 114.702 37.2748 114.699 36.5979C114.694 35.6882 114.997 34.8037 115.559 34.0882C116.121 33.3728 116.908 32.8684 117.793 32.6573C118.678 32.4462 119.608 32.5407 120.432 32.9254C121.256 33.3102 121.926 33.9625 122.333 34.7763C122.339 34.7763 122.343 34.7703 122.349 34.7662C127.253 44.0535 129.81 54.3993 129.799 64.9017C129.799 65.5324 129.768 66.1612 129.75 66.7899ZM106.685 30.5651C99.1727 37.3147 90.7895 43.0264 81.7592 47.5474C81.5469 47.693 81.3407 47.8446 81.0293 47.9982C79.5899 48.7072 78.4498 49.9053 77.8131 51.3781C77.1763 52.8509 77.0845 54.5022 77.554 56.0365C77.554 56.0426 77.548 56.0466 77.5419 56.0527C80.16 65.2312 75.2796 74.7696 66.5459 78.1418C66.5317 78.1478 66.5419 78.1842 66.5317 78.1943C53.2728 83.4797 41.8544 92.5364 33.6893 104.244C32.8991 105.632 32.6171 107.252 32.8915 108.826C33.166 110.399 33.9799 111.828 35.1934 112.866C43.0875 117.823 52.0897 120.74 61.3906 121.356L61.3865 121.418C62.3972 121.496 63.3414 121.952 64.0308 122.695C64.7203 123.438 65.1044 124.414 65.1064 125.427C65.1063 126.029 64.9717 126.624 64.7124 127.167C64.4532 127.711 64.0758 128.189 63.6079 128.568C63.14 128.947 62.5934 129.217 62.008 129.358C61.4225 129.498 60.8131 129.507 60.2241 129.382C49.4666 128.579 39.4733 125.104 30.8265 119.678C24.4784 115.076 22.8671 106.395 26.9752 99.8022C36.0183 86.7663 48.759 76.5123 63.7175 70.5988C63.7836 70.5533 63.8524 70.5121 63.9238 70.4755C66.2463 69.5262 68.1286 67.7406 69.199 65.4714C70.2695 63.2021 70.4503 60.614 69.7058 58.2179C69.6411 58.0117 69.6128 57.8439 69.5744 57.664C68.8021 54.3994 69.1352 50.9708 70.5215 47.916C71.9079 44.8612 74.269 42.353 77.2346 40.7848C85.8095 36.6048 93.7725 31.2721 100.903 24.9347C101.307 24.3338 101.497 23.6145 101.443 22.8925C101.388 22.1705 101.093 21.4877 100.603 20.954C90.8892 13.0815 78.5811 8.29412 65.1044 8.29412C59.5811 8.29412 54.2681 9.15132 49.226 10.6373C49.0566 10.8099 48.9552 11.0381 48.9407 11.2796C48.9263 11.5211 48.9996 11.7597 49.1472 11.9514C49.1613 11.9716 49.1229 11.9615 49.1128 11.9615C56.1372 20.2258 62.462 29.0601 68.0217 38.3729C68.9983 40.6408 69.3146 43.1383 68.934 45.578C68.5534 48.0177 67.4916 50.3003 65.8707 52.1629C65.899 52.2115 65.9131 52.2721 65.9495 52.3206C66.184 52.7068 65.9091 52.8038 65.341 52.727C64.5769 53.5342 63.7103 54.2377 62.7633 54.8194C62.1788 55.1635 61.5693 55.4628 60.9397 55.7151C49.1544 59.1376 36.9427 60.8693 24.6705 60.8583C22.7256 60.8583 20.809 60.7956 18.8925 60.739C10.6439 60.1911 4.22909 53.2263 4.45956 44.8889C4.51641 42.9813 4.9249 41.1006 5.66449 39.3413C10.0819 29.0933 17.0891 20.2484 25.8329 13.5465C26.3958 12.975 27.1159 12.5838 27.9016 12.4227C28.6874 12.2615 29.5033 12.3377 30.2456 12.6416C30.988 12.9455 31.6231 13.4633 32.0704 14.1291C32.5176 14.795 32.7567 15.5788 32.7573 16.3809C32.7564 17.0084 32.6088 17.627 32.3262 18.1872C32.0436 18.7475 31.6339 19.2339 31.1298 19.6075L31.1824 19.6743C23.1276 25.7225 16.8269 33.8047 12.9264 43.0916C12.6883 43.793 12.5581 44.5264 12.5403 45.2669C12.5263 47.1715 13.2507 49.0074 14.5613 50.3894C15.872 51.7713 17.6671 52.5917 19.5697 52.6785C21.2578 52.7229 22.95 52.7715 24.6705 52.7715C36.3498 52.7715 47.5682 51.144 58.0629 48.166C58.2691 48.071 58.4834 48.0144 58.6855 47.885C59.6205 47.3061 60.338 46.4344 60.7263 45.4055C61.1146 44.3766 61.152 43.2483 60.8326 42.196C55.6087 33.5022 49.6886 25.2461 43.1306 17.509C43.0821 17.3958 43.0457 17.2886 42.9588 17.1815C42.1474 16.2097 41.5483 15.0789 41.1999 13.8619C39.8554 9.18973 42.4554 4.35989 46.9981 2.80925C52.8795 1.08703 58.9761 0.210936 65.1044 0.207326C79.8197 0.188837 94.0976 5.20952 105.563 14.434C110.17 18.3521 110.934 25.2177 107.182 30.0253C107.026 30.2214 106.846 30.3791 106.685 30.5651ZM8.48274 68.8136L8.68895 68.8197C9.33343 78.1039 12.2718 87.0831 17.2407 94.9522C17.2165 94.9724 17.1882 94.9865 17.168 95.0047C17.5742 95.6137 17.8076 96.3215 17.8431 97.0526C17.8786 97.7838 17.715 98.5109 17.3696 99.1564C17.0243 99.8018 16.5102 100.341 15.8822 100.718C15.2542 101.094 14.5359 101.292 13.8038 101.292C12.9621 101.29 12.1421 101.025 11.4585 100.533C10.7749 100.042 10.2618 99.3498 9.99093 98.5528C4.90838 90.2376 1.59684 80.7235 0.71942 70.4856C0.492068 69.9389 0.387741 69.3489 0.413835 68.7574C0.439929 68.1659 0.595803 67.5873 0.870412 67.0628C1.14502 66.5382 1.53164 66.0805 2.00288 65.722C2.47411 65.3636 3.01842 65.1131 3.59723 64.9885C4.17605 64.8638 4.77519 64.868 5.35221 65.0007C5.92923 65.1334 6.47 65.3914 6.93618 65.7564C7.40237 66.1214 7.78257 66.5845 8.04984 67.1129C8.31711 67.6412 8.4649 68.2218 8.48274 68.8136ZM77.2346 121.509C77.7731 121.497 78.3085 121.593 78.8096 121.79C79.3106 121.988 79.7671 122.283 80.1523 122.66C80.5374 123.036 80.8435 123.486 81.0525 123.982C81.2615 124.479 81.3693 125.012 81.3694 125.551C81.3696 126.089 81.2621 126.622 81.0533 127.119C80.8446 127.615 80.5387 128.065 80.1537 128.442C79.7687 128.818 79.3124 129.114 78.8114 129.312C78.3105 129.51 77.7751 129.606 77.2366 129.594C76.1802 129.571 75.1748 129.135 74.4358 128.379C73.6968 127.624 73.2829 126.609 73.2826 125.553C73.2824 124.496 73.6958 123.481 74.4344 122.725C75.173 121.97 76.1782 121.533 77.2346 121.509Z" fill="#EA4C89"/>
</svg>
